<?xml version="1.0" encoding="UTF-8" standalone="no"?>
<!-- Created with Inkscape (http://www.inkscape.org/) -->

<svg
   width="45.59967mm"
   height="45.59959mm"
   viewBox="0 0 45.59967 45.59959"
   version="1.1"
   id="svg1"
   inkscape:version="1.3 (0e150ed6c4, 2023-07-21)"
   sodipodi:docname="metamake.svg"
   xmlns:inkscape="http://www.inkscape.org/namespaces/inkscape"
   xmlns:sodipodi="http://sodipodi.sourceforge.net/DTD/sodipodi-0.dtd"
   xmlns:xlink="http://www.w3.org/1999/xlink"
   xmlns="http://www.w3.org/2000/svg"
   xmlns:svg="http://www.w3.org/2000/svg">
  <sodipodi:namedview
     id="namedview1"
     pagecolor="#505050"
     bordercolor="#eeeeee"
     borderopacity="1"
     inkscape:showpageshadow="0"
     inkscape:pageopacity="0"
     inkscape:pagecheckerboard="0"
     inkscape:deskcolor="#505050"
     inkscape:document-units="mm"
     showguides="true"
     inkscape:zoom="2.0899411"
     inkscape:cx="2748.1636"
     inkscape:cy="-820.35805"
     inkscape:window-width="2560"
     inkscape:window-height="1369"
     inkscape:window-x="2552"
     inkscape:window-y="-8"
     inkscape:window-maximized="1"
     inkscape:current-layer="svg1" />
  <defs
     id="defs1">
    <linearGradient
       id="linearGradient301"
       inkscape:collect="always">
      <stop
         style="stop-color:#191919;stop-opacity:1;"
         offset="0"
         id="stop300" />
      <stop
         style="stop-color:#777777;stop-opacity:1;"
         offset="1"
         id="stop301" />
    </linearGradient>
    <inkscape:path-effect
       effect="fillet_chamfer"
       id="path-effect283"
       is_visible="true"
       lpeversion="1"
       nodesatellites_param="F,0,0,1,0,7.14375,0,1 @ F,0,0,1,0,7.14375,0,1 @ F,0,0,1,0,7.14375,0,1 @ F,0,0,1,0,7.14375,0,1 @ F,0,0,1,0,7.14375,0,1 @ F,0,0,1,0,7.14375,0,1"
       radius="27"
       unit="px"
       method="auto"
       mode="F"
       chamfer_steps="1"
       flexible="false"
       use_knot_distance="true"
       apply_no_radius="true"
       apply_with_radius="true"
       only_selected="false"
       hide_knots="false" />
    <inkscape:path-effect
       effect="fillet_chamfer"
       id="path-effect281"
       is_visible="true"
       lpeversion="1"
       nodesatellites_param="F,0,0,1,0,7.14375,0,1 @ F,0,0,1,0,7.14375,0,1 @ F,0,0,1,0,7.14375,0,1 @ F,0,0,1,0,7.14375,0,1 @ F,0,0,1,0,7.14375,0,1 @ F,0,0,1,0,7.14375,0,1"
       radius="27"
       unit="px"
       method="auto"
       mode="F"
       chamfer_steps="1"
       flexible="false"
       use_knot_distance="true"
       apply_no_radius="true"
       apply_with_radius="true"
       only_selected="false"
       hide_knots="false" />
    <inkscape:path-effect
       effect="fillet_chamfer"
       id="path-effect279"
       is_visible="true"
       lpeversion="1"
       nodesatellites_param="F,0,0,1,0,7.14375,0,1 @ F,0,0,1,0,7.14375,0,1 @ F,0,0,1,0,7.14375,0,1 @ F,0,0,1,0,7.14375,0,1 @ F,0,0,1,0,7.14375,0,1 @ F,0,0,1,0,7.14375,0,1"
       radius="27"
       unit="px"
       method="auto"
       mode="F"
       chamfer_steps="1"
       flexible="false"
       use_knot_distance="true"
       apply_no_radius="true"
       apply_with_radius="true"
       only_selected="false"
       hide_knots="false" />
    <inkscape:path-effect
       effect="fillet_chamfer"
       id="path-effect277"
       is_visible="true"
       lpeversion="1"
       nodesatellites_param="F,0,0,1,0,7.14375,0,1 @ F,0,0,1,0,7.14375,0,1 @ F,0,0,1,0,7.14375,0,1 @ F,0,0,1,0,7.14375,0,1 @ F,0,0,1,0,7.14375,0,1 @ F,0,0,1,0,7.14375,0,1"
       radius="27"
       unit="px"
       method="auto"
       mode="F"
       chamfer_steps="1"
       flexible="false"
       use_knot_distance="true"
       apply_no_radius="true"
       apply_with_radius="true"
       only_selected="false"
       hide_knots="false" />
    <inkscape:path-effect
       effect="fillet_chamfer"
       id="path-effect275"
       is_visible="true"
       lpeversion="1"
       nodesatellites_param="F,0,0,1,0,7.14375,0,1 @ F,0,0,1,0,7.14375,0,1 @ F,0,0,1,0,7.14375,0,1 @ F,0,0,1,0,7.14375,0,1 @ F,0,0,1,0,7.14375,0,1 @ F,0,0,1,0,7.14375,0,1"
       radius="27"
       unit="px"
       method="auto"
       mode="F"
       chamfer_steps="1"
       flexible="false"
       use_knot_distance="true"
       apply_no_radius="true"
       apply_with_radius="true"
       only_selected="false"
       hide_knots="false" />
    <linearGradient
       inkscape:collect="always"
       xlink:href="#linearGradient301"
       id="linearGradient283"
       gradientUnits="userSpaceOnUse"
       x1="118.19687"
       y1="67.918465"
       x2="118.80804"
       y2="18.365868" />
    <linearGradient
       inkscape:collect="always"
       xlink:href="#linearGradient301"
       id="linearGradient284"
       gradientUnits="userSpaceOnUse"
       x1="118.19687"
       y1="67.918465"
       x2="118.80804"
       y2="18.365868" />
    <linearGradient
       inkscape:collect="always"
       xlink:href="#linearGradient301"
       id="linearGradient285"
       gradientUnits="userSpaceOnUse"
       x1="118.19687"
       y1="67.918465"
       x2="118.80804"
       y2="18.365868" />
    <linearGradient
       inkscape:collect="always"
       xlink:href="#linearGradient301"
       id="linearGradient286"
       gradientUnits="userSpaceOnUse"
       x1="118.19687"
       y1="67.918465"
       x2="118.80804"
       y2="18.365868" />
    <linearGradient
       inkscape:collect="always"
       xlink:href="#linearGradient301"
       id="linearGradient287"
       gradientUnits="userSpaceOnUse"
       x1="118.19687"
       y1="67.918465"
       x2="118.80804"
       y2="18.365868" />
  </defs>
  <g
     inkscape:label="Layer 1"
     inkscape:groupmode="layer"
     id="layer1"
     transform="translate(-1044.2989,312.23046)">
    <path
       id="rect301"
       style="font-variation-settings:normal;opacity:1;vector-effect:none;fill:#e3651d;fill-opacity:0;stroke:none;stroke-width:0.331483;stroke-linecap:round;stroke-linejoin:miter;stroke-miterlimit:4;stroke-dasharray:none;stroke-dashoffset:0;stroke-opacity:1;-inkscape-stroke:none"
       d="m 1044.2988,-311.70117 c 0,15.02344 0,30.04687 0,45.07031 15.1999,0 30.3998,0 45.5996,0 0,-15.19987 0,-30.39974 0,-45.59961 -15.1998,0 -30.3997,0 -45.5996,0 0,0.17643 0,0.35287 0,0.5293 z" />
    <path
       sodipodi:type="star"
       style="fill:url(#linearGradient287);stroke-width:2;stroke-linecap:round"
       id="path264"
       inkscape:flatsided="true"
       sodipodi:sides="6"
       sodipodi:cx="117.80652"
       sodipodi:cy="62.663044"
       sodipodi:r1="53.948479"
       sodipodi:r2="46.720753"
       sodipodi:arg1="0.52359878"
       sodipodi:arg2="1.0471976"
       inkscape:rounded="0"
       inkscape:randomized="0"
       d="m 158.3406,93.209159 -34.34741,19.830491 a 12.373338,12.373338 2.5219878e-7 0 1 -12.37334,0 L 77.272434,93.209158 A 12.373338,12.373338 60 0 1 71.085765,82.493533 l 1e-6,-39.660979 A 12.373338,12.373338 120 0 1 77.272435,32.116929 L 111.61985,12.28644 a 12.373338,12.373338 2.5219889e-7 0 1 12.37334,0 l 34.34741,19.83049 a 12.373338,12.373338 60 0 1 6.18667,10.715625 l 0,39.660979 a 12.373338,12.373338 120 0 1 -6.18667,10.715625 z"
       inkscape:transform-center-x="-2.1744389e-06"
       transform="matrix(0.23847004,0,0,0.23847004,1027.8638,-297.94176)"
       inkscape:transform-center-y="-1.1355716e-06"
       inkscape:path-effect="#path-effect275" />
    <rect
       style="fill:#e3651d;fill-opacity:1;stroke-width:0.39371;stroke-linecap:round"
       id="rect264"
       width="10.573392"
       height="10.573392"
       x="1220.7043"
       y="328.04871"
       ry="1.0995539"
       transform="matrix(0.8660254,-0.50000001,-1.1768035e-8,1,0,0)"
       sodipodi:type="rect" />
    <rect
       style="fill:#750e21;fill-opacity:1;stroke-width:0.39371;stroke-linecap:round"
       id="rect265"
       width="10.573392"
       height="10.573392"
       x="880.69208"
       y="1207.3507"
       ry="1.0995539"
       transform="matrix(-1.0552473e-8,-1,0.8660254,0.50000001,0,0)"
       sodipodi:type="rect" />
    <path
       sodipodi:type="star"
       style="fill:url(#linearGradient286);stroke-width:2;stroke-linecap:round"
       id="path265"
       inkscape:flatsided="true"
       sodipodi:sides="6"
       sodipodi:cx="117.80652"
       sodipodi:cy="62.663044"
       sodipodi:r1="53.948479"
       sodipodi:r2="46.720753"
       sodipodi:arg1="0.52359878"
       sodipodi:arg2="1.0471976"
       inkscape:rounded="0"
       inkscape:randomized="0"
       d="m 158.3406,93.209159 -34.34741,19.830491 a 12.373338,12.373338 2.5219878e-7 0 1 -12.37334,0 L 77.272434,93.209158 A 12.373338,12.373338 60 0 1 71.085765,82.493533 l 1e-6,-39.660979 A 12.373338,12.373338 120 0 1 77.272435,32.116929 L 111.61985,12.28644 a 12.373338,12.373338 2.5219889e-7 0 1 12.37334,0 l 34.34741,19.83049 a 12.373338,12.373338 60 0 1 6.18667,10.715625 l 0,39.660979 a 12.373338,12.373338 120 0 1 -6.18667,10.715625 z"
       inkscape:transform-center-x="-2.1744389e-06"
       transform="matrix(0.23847004,0,0,0.23847004,1027.8638,-310.80686)"
       inkscape:transform-center-y="-1.1355716e-06"
       inkscape:path-effect="#path-effect277" />
    <rect
       style="fill:#bed754;fill-opacity:1;stroke-width:0.39371;stroke-linecap:round"
       id="rect266"
       width="10.573392"
       height="10.573392"
       x="301.82986"
       y="-917.48425"
       ry="1.0995539"
       transform="matrix(0.86602541,0.49999999,-0.86602541,0.49999999,0,0)"
       sodipodi:type="rect" />
    <rect
       style="fill:#750e21;fill-opacity:1;stroke-width:0.39371;stroke-linecap:round"
       id="rect267"
       width="10.573392"
       height="10.573392"
       x="893.55719"
       y="1207.3506"
       ry="1.0995539"
       transform="matrix(-1.0552473e-8,-1,0.8660254,0.50000001,0,0)"
       sodipodi:type="rect" />
    <path
       sodipodi:type="star"
       style="fill:url(#linearGradient285);fill-opacity:1;stroke-width:2;stroke-linecap:round"
       id="path267"
       inkscape:flatsided="true"
       sodipodi:sides="6"
       sodipodi:cx="117.80652"
       sodipodi:cy="62.663044"
       sodipodi:r1="53.948479"
       sodipodi:r2="46.720753"
       sodipodi:arg1="0.52359878"
       sodipodi:arg2="1.0471976"
       inkscape:rounded="0"
       inkscape:randomized="0"
       d="m 158.3406,93.209159 -34.34741,19.830491 a 12.373338,12.373338 2.5219878e-7 0 1 -12.37334,0 L 77.272434,93.209158 A 12.373338,12.373338 60 0 1 71.085765,82.493533 l 1e-6,-39.660979 A 12.373338,12.373338 120 0 1 77.272435,32.116929 L 111.61985,12.28644 a 12.373338,12.373338 2.5219889e-7 0 1 12.37334,0 l 34.34741,19.83049 a 12.373338,12.373338 60 0 1 6.18667,10.715625 l 0,39.660979 a 12.373338,12.373338 120 0 1 -6.18667,10.715625 z"
       inkscape:transform-center-x="-2.1744389e-06"
       transform="matrix(0.23847004,0,0,0.23847004,1050.1468,-297.94176)"
       inkscape:transform-center-y="-1.1355716e-06"
       inkscape:path-effect="#path-effect279" />
    <rect
       style="fill:#e3651d;fill-opacity:1;stroke-width:0.39371;stroke-linecap:round"
       id="rect268"
       width="10.573392"
       height="10.573392"
       x="1246.4344"
       y="340.91382"
       ry="1.0995539"
       transform="matrix(0.8660254,-0.50000001,-1.1768035e-8,1,0,0)"
       sodipodi:type="rect" />
    <rect
       style="fill:#750e21;fill-opacity:1;stroke-width:0.39371;stroke-linecap:round"
       id="rect269"
       width="10.573392"
       height="10.573392"
       x="893.55725"
       y="1233.0808"
       ry="1.0995539"
       transform="matrix(-1.0552473e-8,-1,0.8660254,0.50000001,0,0)"
       sodipodi:type="rect" />
    <path
       sodipodi:type="star"
       style="fill:url(#linearGradient284);stroke-width:2;stroke-linecap:round"
       id="path269"
       inkscape:flatsided="true"
       sodipodi:sides="6"
       sodipodi:cx="117.80652"
       sodipodi:cy="62.663044"
       sodipodi:r1="53.948479"
       sodipodi:r2="46.720753"
       sodipodi:arg1="0.52359878"
       sodipodi:arg2="1.0471976"
       inkscape:rounded="0"
       inkscape:randomized="0"
       d="m 158.3406,93.209159 -34.34741,19.830491 a 12.373338,12.373338 2.5219878e-7 0 1 -12.37334,0 L 77.272434,93.209158 A 12.373338,12.373338 60 0 1 71.085765,82.493533 l 1e-6,-39.660979 A 12.373338,12.373338 120 0 1 77.272435,32.116929 L 111.61985,12.28644 a 12.373338,12.373338 2.5219889e-7 0 1 12.37334,0 l 34.34741,19.83049 a 12.373338,12.373338 60 0 1 6.18667,10.715625 l 0,39.660979 a 12.373338,12.373338 120 0 1 -6.18667,10.715625 z"
       inkscape:transform-center-x="-2.1744389e-06"
       transform="matrix(0.23847004,0,0,0.23847004,1050.1468,-310.80686)"
       inkscape:transform-center-y="-1.1355716e-06"
       inkscape:path-effect="#path-effect281" />
    <rect
       style="fill:#bed754;fill-opacity:1;stroke-width:0.39371;stroke-linecap:round"
       id="rect270"
       width="10.573392"
       height="10.573392"
       x="314.69501"
       y="-930.3493"
       ry="1.0995539"
       transform="matrix(0.86602541,0.49999999,-0.86602541,0.49999999,0,0)"
       sodipodi:type="rect" />
    <rect
       style="fill:#e3651d;fill-opacity:1;stroke-width:0.39371;stroke-linecap:round"
       id="rect271"
       width="10.573392"
       height="10.573392"
       x="1246.4344"
       y="328.04874"
       ry="1.0995539"
       transform="matrix(0.8660254,-0.50000001,-1.1768035e-8,1,0,0)"
       sodipodi:type="rect" />
    <path
       sodipodi:type="star"
       style="fill:url(#linearGradient283);stroke-width:2;stroke-linecap:round"
       id="path271"
       inkscape:flatsided="true"
       sodipodi:sides="6"
       sodipodi:cx="117.80652"
       sodipodi:cy="62.663044"
       sodipodi:r1="53.948479"
       sodipodi:r2="46.720753"
       sodipodi:arg1="0.52359878"
       sodipodi:arg2="1.0471976"
       inkscape:rounded="0"
       inkscape:randomized="0"
       d="m 158.3406,93.209159 -34.34741,19.830491 a 12.373338,12.373338 2.5219878e-7 0 1 -12.37334,0 L 77.272434,93.209158 A 12.373338,12.373338 60 0 1 71.085765,82.493533 l 1e-6,-39.660979 A 12.373338,12.373338 120 0 1 77.272435,32.116929 L 111.61985,12.28644 a 12.373338,12.373338 2.5219889e-7 0 1 12.37334,0 l 34.34741,19.83049 a 12.373338,12.373338 60 0 1 6.18667,10.715625 l 0,39.660979 a 12.373338,12.373338 120 0 1 -6.18667,10.715625 z"
       inkscape:transform-center-x="-2.1744389e-06"
       transform="matrix(0.23847004,0,0,0.23847004,1039.0053,-304.37431)"
       inkscape:transform-center-y="-1.1355716e-06"
       inkscape:path-effect="#path-effect283" />
    <rect
       style="fill:#bed754;fill-opacity:1;stroke-width:0.39371;stroke-linecap:round"
       id="rect272"
       width="10.573392"
       height="10.573392"
       x="314.69498"
       y="-917.48425"
       ry="1.0995539"
       transform="matrix(0.86602541,0.49999999,-0.86602541,0.49999999,0,0)"
       sodipodi:type="rect" />
    <rect
       style="fill:#e3651d;fill-opacity:1;stroke-width:0.39371;stroke-linecap:round"
       id="rect273"
       width="10.573392"
       height="10.573392"
       x="1233.5693"
       y="328.04871"
       ry="1.0995539"
       transform="matrix(0.8660254,-0.50000001,-1.1768035e-8,1,0,0)"
       sodipodi:type="rect" />
    <rect
       style="fill:#750e21;fill-opacity:1;stroke-width:0.39371;stroke-linecap:round"
       id="rect274"
       width="10.573392"
       height="10.573392"
       x="893.55719"
       y="1220.2157"
       ry="1.0995539"
       transform="matrix(-1.0552473e-8,-1,0.8660254,0.50000001,0,0)"
       sodipodi:type="rect" />
    <rect
       style="font-variation-settings:normal;opacity:1;vector-effect:none;fill:#e3651d;fill-opacity:1;stroke:none;stroke-width:0.476941;stroke-linecap:round;stroke-linejoin:miter;stroke-miterlimit:4;stroke-dasharray:none;stroke-dashoffset:0;stroke-opacity:1;-inkscape-stroke:none"
       id="rect303"
       width="10.648752"
       height="10.185438"
       x="1089.8984"
       y="-322.41589" />
  </g>
</svg>
